<svg xmlns="http://www.w3.org/2000/svg" viewBox="0 0 800 1000" fill="none">
  <defs>
    <linearGradient id="sky" x1="0" y1="0" x2="0" y2="1">
      <stop offset="0%" stop-color="#0a0a0a"></stop>
      <stop offset="45%" stop-color="#0f2f1c"></stop>
      <stop offset="100%" stop-color="#1a3d28"></stop>
    </linearGradient>
    <linearGradient id="sea" x1="0" y1="0" x2="0" y2="1">
      <stop offset="0%" stop-color="#0a1f13"></stop>
      <stop offset="100%" stop-color="#050d08"></stop>
    </linearGradient>
    <radialGradient id="sun" cx="0.72" cy="0.28" r="0.22">
      <stop offset="0%" stop-color="#f5d48a" stop-opacity="0.55"></stop>
      <stop offset="45%" stop-color="#c99a2b" stop-opacity="0.18"></stop>
      <stop offset="100%" stop-color="#c99a2b" stop-opacity="0"></stop>
    </radialGradient>
    <filter id="glow" x="-50%" y="-50%" width="200%" height="200%">
      <feGaussianBlur stdDeviation="1.2"></feGaussianBlur>
    </filter>
  </defs>

  
  <rect width="800" height="1000" fill="url(#sky)"></rect>
  <rect width="800" height="1000" fill="url(#sun)"></rect>

  
  <g opacity="0.28" stroke="#dbb04a" stroke-width="1" fill="none">
    <path d="M0 440 L90 380 L160 420 L240 360 L330 410 L410 350 L500 400 L590 340 L680 390 L800 360 L800 520 L0 520 Z" fill="#0a1f13" fill-opacity="0.6"></path>
  </g>

  
  <g stroke="#dbb04a" stroke-width="1.2" fill="none" opacity="0.7">
    
    <path d="M0 580 L80 560 L140 565 L200 540 L260 545 L320 520 L360 540 L380 520 L400 540 L420 518 L445 540 L470 510 L505 535 L520 508 L545 520 L570 495 L600 515 L640 505 L680 520 L720 500 L780 510 L800 495 L800 700 L0 700 Z" fill="#0f2f1c" fill-opacity="0.85"></path>
  </g>

  
  <g stroke="#dbb04a" stroke-width="1" fill="none" opacity="0.55">
    <path d="M520 508 L525 500 L530 508 L540 508 L545 498 L550 508 L560 508 L565 500 L570 495 L578 500 L585 495 L595 500 L600 515"></path>
    <path d="M640 505 L645 498 L655 498 L660 505 L670 505 L675 498 L685 498 L690 505"></path>
  </g>

  
  <g stroke="#dbb04a" stroke-width="1.4" fill="#0a1f13" opacity="0.82">
    
    <rect x="320" y="500" width="80" height="110"></rect>
    
    <rect x="322" y="430" width="28" height="80"></rect>
    
    <path d="M322 430 L336 408 L350 430 Z"></path>
    <line x1="336" y1="408" x2="336" y2="395" stroke="#dbb04a" stroke-width="1"></line>
    <circle cx="336" cy="393" r="1.5" fill="#dbb04a"></circle>
    
    <rect x="372" y="470" width="26" height="40"></rect>
    
    <path d="M340 500 Q360 470 380 500"></path>
    <line x1="360" y1="470" x2="360" y2="462" stroke="#dbb04a"></line>
    <path d="M356 462 L360 455 L364 462 Z"></path>
    
    <line x1="330" y1="520" x2="330" y2="540"></line>
    <line x1="345" y1="520" x2="345" y2="540"></line>
    <line x1="375" y1="520" x2="375" y2="540"></line>
    <line x1="390" y1="520" x2="390" y2="540"></line>
    
    <path d="M350 580 Q360 565 370 580 L370 610 L350 610 Z"></path>
  </g>

  
  <g stroke="#dbb04a" stroke-width="0.8" fill="#0a1f13" fill-opacity="0.9" opacity="0.65">
    <path d="M0 640 L40 630 L40 615 L80 615 L80 625 L120 625 L120 610 L160 610 L160 620 L200 620 L200 635 L240 635 L240 625 L280 625 L280 640 L320 640"></path>
    <path d="M400 640 L440 640 L440 628 L480 628 L480 618 L520 618 L520 630 L560 630 L560 620 L600 620 L600 632 L640 632 L640 622 L680 622 L680 635 L720 635 L720 625 L760 625 L760 640 L800 640"></path>
    
    <ellipse cx="150" cy="660" rx="42" ry="8"></ellipse>
    <path d="M108 660 Q150 630 192 660"></path>
    <path d="M118 658 Q150 642 182 658" opacity="0.5"></path>
  </g>

  
  <g stroke="#dbb04a" stroke-width="1.2" fill="none" opacity="0.78">
    
    <g transform="translate(90,720)">
      <path d="M0 0 Q2 -40 -1 -85 Q-2 -110 0 -130"></path>
      <path d="M0 -130 Q-28 -142 -48 -134"></path>
      <path d="M0 -130 Q-22 -155 -40 -165"></path>
      <path d="M0 -130 Q0 -160 -8 -180"></path>
      <path d="M0 -130 Q18 -158 32 -165"></path>
      <path d="M0 -130 Q26 -144 46 -136"></path>
      <path d="M0 -130 Q14 -155 22 -178"></path>
    </g>
    
    <g transform="translate(210,735)">
      <path d="M0 0 Q-2 -40 1 -80 Q2 -100 -1 -120"></path>
      <path d="M-1 -120 Q-24 -130 -42 -124"></path>
      <path d="M-1 -120 Q-18 -142 -34 -152"></path>
      <path d="M-1 -120 Q-2 -148 -8 -166"></path>
      <path d="M-1 -120 Q16 -144 30 -150"></path>
      <path d="M-1 -120 Q22 -132 40 -126"></path>
    </g>
    
    <g transform="translate(640,730)">
      <path d="M0 0 Q2 -40 -1 -85 Q-2 -108 0 -125"></path>
      <path d="M0 -125 Q-24 -138 -42 -130"></path>
      <path d="M0 -125 Q-18 -148 -34 -158"></path>
      <path d="M0 -125 Q-2 -152 -10 -172"></path>
      <path d="M0 -125 Q18 -148 32 -158"></path>
      <path d="M0 -125 Q24 -138 42 -132"></path>
      <path d="M0 -125 Q14 -152 20 -170"></path>
    </g>
    
    <g transform="translate(720,740)">
      <path d="M0 0 Q-2 -36 1 -72 Q2 -90 -1 -108"></path>
      <path d="M-1 -108 Q-22 -118 -38 -112"></path>
      <path d="M-1 -108 Q-16 -130 -30 -138"></path>
      <path d="M-1 -108 Q-2 -134 -8 -150"></path>
      <path d="M-1 -108 Q16 -128 28 -136"></path>
      <path d="M-1 -108 Q20 -118 36 -114"></path>
    </g>
  </g>

  
  <rect y="760" width="800" height="240" fill="url(#sea)"></rect>

  
  <line x1="0" y1="760" x2="800" y2="760" stroke="#dbb04a" stroke-width="0.8" opacity="0.4"></line>

  
  <g stroke="#dbb04a" stroke-width="0.5" opacity="0.18">
    <line x1="50" y1="790" x2="140" y2="790"></line>
    <line x1="200" y1="800" x2="320" y2="800"></line>
    <line x1="380" y1="795" x2="460" y2="795"></line>
    <line x1="520" y1="805" x2="620" y2="805"></line>
    <line x1="680" y1="795" x2="770" y2="795"></line>
    <line x1="80" y1="830" x2="180" y2="830"></line>
    <line x1="240" y1="840" x2="360" y2="840"></line>
    <line x1="420" y1="835" x2="540" y2="835"></line>
    <line x1="600" y1="845" x2="720" y2="845"></line>
    <line x1="40" y1="870" x2="120" y2="870"></line>
    <line x1="300" y1="880" x2="420" y2="880"></line>
    <line x1="500" y1="875" x2="600" y2="875"></line>
  </g>

  
  <g stroke="#dbb04a" stroke-width="0.8" fill="none" opacity="0.65">
    <g transform="translate(280,800)">
      <path d="M-10 0 L10 0 L6 5 L-6 5 Z" fill="#0a1f13"></path>
      <line x1="0" y1="0" x2="0" y2="-16"></line>
      <path d="M0 -16 L8 0 Z" fill="#0a1f13"></path>
    </g>
    <g transform="translate(560,825)">
      <path d="M-8 0 L8 0 L5 4 L-5 4 Z" fill="#0a1f13"></path>
      <line x1="0" y1="0" x2="0" y2="-12"></line>
      <path d="M0 -12 L6 0 Z" fill="#0a1f13"></path>
    </g>
  </g>

  
  <path d="M0 940 Q100 930 200 940 T400 940 T600 940 T800 940 L800 1000 L0 1000 Z" fill="#050d08" stroke="#dbb04a" stroke-width="0.6" stroke-opacity="0.3"></path>

  
  <g opacity="0.7" filter="url(#glow)">
    <circle cx="120" cy="160" r="1.2" fill="#f5d48a"></circle>
    <circle cx="260" cy="120" r="0.9" fill="#f5d48a"></circle>
    <circle cx="440" cy="180" r="1" fill="#f5d48a"></circle>
    <circle cx="620" cy="140" r="0.8" fill="#f5d48a"></circle>
  </g>

  
  <radialGradient id="vignette" cx="0.5" cy="0.5" r="0.75">
    <stop offset="60%" stop-color="#000" stop-opacity="0"></stop>
    <stop offset="100%" stop-color="#000" stop-opacity="0.6"></stop>
  </radialGradient>
  <rect width="800" height="1000" fill="url(#vignette)"></rect>
</svg>